<?xml version="1.0" ?>
<!DOCTYPE svg  PUBLIC '-//W3C//DTD SVG 1.1//EN'  'http://www.w3.org/Graphics/SVG/1.1/DTD/svg11.dtd'>
<svg height="64px" style="fill-rule:evenodd;clip-rule:evenodd;stroke-linejoin:round;stroke-miterlimit:2;" version="1.1" viewBox="0 0 96 96" width="64px" xmlSpace="preserve" xmlns="http://www.w3.org/2000/svg" xmlnsSerif="http://www.serif.com/" xmlnsXlink="http://www.w3.org/1999/xlink">
<path d="M48,0A48,48,0,1,0,96,48,48,48,0,0,0,48,0ZM21.48,59a2.07,2.07,0,1,1-4.14,0V54.84a2.07,2.07,0,1,1,4.14,0Zm8.39,0a2.13,2.13,0,0,1-2.14,2.08A2.08,2.08,0,0,1,25.68,59V50.65a2.08,2.08,0,0,1,2.06-2.09,2.13,2.13,0,0,1,2.14,2.09Zm8.33,0A2.1,2.1,0,0,1,34,59V46.48a2.1,2.1,0,1,1,4.19,0Zm8.34-.55a2.39,2.39,0,0,1-2.08,2.63,2.39,2.39,0,0,1-2.08-2.63V42.8a2.37,2.37,0,0,1,2.08-2.58,2.37,2.37,0,0,1,2.08,2.58Zm24,2.63H50.74V35.32a14.85,14.85,0,0,1,3.13-.3,14.58,14.58,0,0,1,14.31,11.9,6,6,0,0,1,2.36-.44,7.31,7.31,0,1,1,0,14.61Z"/>
</svg>