<svg width="172" height="56" fill="none" xmlns="http://www.w3.org/2000/svg"><path d="M119.422 18.785c-1-1.072-2.393-1.608-4.143-1.608-2.858.036-4.787 1.286-5.751 3.715-.357-1.178-1-2.107-1.929-2.75-.929-.643-2.036-.965-3.394-.965-2.607.036-4.429 1.036-5.465 3v-1.32c0-.644-.321-1.537-1.5-1.537h-2.286v13.967c0 .643.322 1.536 1.5 1.536h2.25v-7.644c0-1.286.358-2.322 1.072-3.144.715-.821 1.679-1.25 2.894-1.321 1.035 0 1.857.321 2.464.928.607.643.893 1.5.893 2.608v7.037c0 .643.322 1.536 1.5 1.536h2.286v-7.644c0-1.286.358-2.322 1.072-3.144.714-.821 1.643-1.25 2.858-1.321 1.035 0 1.857.321 2.464.928.608.643.929 1.5.929 2.608v7.251c.071.607.429 1.322 1.5 1.322h2.286v-9.68c0-1.858-.5-3.287-1.5-4.358zM167.894 17.999c-.893.536-1.607 1.286-2.143 2.286v-1.429c0-.643-.321-1.536-1.5-1.536h-2.25v14.003c0 .642.357 1.5 1.5 1.5h2.25v-7.501c0-1.43.465-2.572 1.429-3.394.965-.857 2.25-1.214 3.822-1.107v-3.644c-1.143 0-2.215.286-3.108.822zM140.315 20.999c-.607-1.215-1.465-2.143-2.572-2.786-1.107-.68-2.393-1-3.822-1-1.143 0-2.179.214-3.072.678a5.247 5.247 0 0 0-2.143 2v-1c0-.643-.321-1.536-1.5-1.536h-2.25v21.11h3.75v-8.18a5.954 5.954 0 0 0 2.215 2.001c.893.464 1.929.679 3.072.679 1.464 0 2.714-.322 3.822-1a6.308 6.308 0 0 0 2.536-2.75c.607-1.18.893-2.537.893-4.073 0-1.572-.322-2.965-.929-4.143zm-4.108 7.394c-.821.893-1.857 1.321-3.143 1.321-1.286 0-2.358-.428-3.143-1.321-.822-.858-1.215-2-1.215-3.394 0-1.357.393-2.5 1.215-3.357.821-.858 1.857-1.322 3.143-1.322 1.286 0 2.322.429 3.143 1.322.822.857 1.215 2 1.215 3.357 0 1.358-.429 2.5-1.215 3.394zM87.023 30.928v.358c0 .642.322 1.535 1.5 1.535h2.18l-.036-10.144c-.036-1.75-.572-3.107-1.679-4.072-1.107-.964-2.679-1.464-4.68-1.464-1.32 0-2.5.143-3.5.464-.178.071-.393.107-.571.179-1.822.714-2.143 2.393-1.393 3.893 1.607-.964 3.143-1.465 4.608-1.465 1.142 0 2 .25 2.607.75.607.5.893 1.215.893 2.108v.393h-4.5c-1.858.036-3.323.429-4.358 1.25-1.036.822-1.536 1.965-1.536 3.393 0 .893.214 1.715.678 2.465.429.75 1.072 1.322 1.893 1.715.822.428 1.786.607 2.858.607 1.107 0 2.072-.179 2.929-.536.857-.25 1.536-.75 2.108-1.429zm-1.357-1.607c-.786.5-1.714.75-2.786.75-.857 0-1.536-.179-2-.571-.5-.393-.75-.893-.75-1.572s.25-1.179.714-1.465c.464-.285 1.214-.464 2.215-.464h3.929v1.393c-.107.786-.536 1.429-1.322 1.929zM154.356 29.465c.071-.036.107-.072.179-.107 1.285-.715 2.929-.5 4 .5-1.75 2.107-4 3.143-6.751 3.143-1.607 0-3-.322-4.215-.965a7.061 7.061 0 0 1-2.857-2.75c-.679-1.179-1.036-2.536-1.036-4.108 0-1.536.321-2.893.964-4.072a6.675 6.675 0 0 1 2.786-2.75c1.215-.643 2.608-1 4.18-1 2.107 0 3.822.607 5.107 1.857 1.322 1.25 2.001 2.893 2.108 5l-10.966 3.144c.357.858.893 1.5 1.643 1.965.714.464 1.572.714 2.5.714.858-.036 1.644-.214 2.358-.571zm-5.751-8.002c-.75.786-1.143 1.894-1.143 3.358l7.716-2.25c-.608-1.536-1.786-2.322-3.501-2.322-1.286.036-2.322.429-3.072 1.215zM89.814 39.242c.536.536.786 1.286.786 2.25v4.787h-.643v-4.644c0-.785-.215-1.428-.643-1.893-.429-.464-1.072-.678-1.858-.678-.928.035-1.643.321-2.179.928-.535.608-.785 1.43-.785 2.465v3.822h-.608v-4.644c0-.785-.214-1.428-.678-1.893-.429-.464-1.072-.678-1.822-.678-.929.035-1.679.321-2.179.928-.536.608-.786 1.43-.786 2.43v3.821h-.607v-7.822h.607v2.071c.25-.678.643-1.178 1.179-1.536.536-.357 1.179-.535 1.965-.535.785 0 1.428.214 1.928.607s.822.964.965 1.679c.25-.715.643-1.286 1.179-1.68.535-.392 1.214-.57 2.036-.606.893 0 1.607.285 2.143.821zM99.96 38.42v7.823h-.607v-2.072c-.25.68-.643 1.215-1.178 1.572-.536.357-1.18.536-1.965.536-.929 0-1.679-.286-2.215-.822-.535-.535-.785-1.285-.785-2.25v-4.786h.607v4.643c0 .786.214 1.429.643 1.893.428.465 1.071.679 1.857.679.929-.036 1.679-.322 2.215-.929.535-.607.785-1.428.785-2.464V38.42h.644zM105.317 38.991c-.572 0-1.036.107-1.429.322-.357.214-.536.571-.536 1 0 .285.107.535.286.75.178.214.393.357.679.464.285.107.643.25 1.107.393.536.179 1 .322 1.321.464.322.143.608.358.858.643.25.286.357.643.357 1.108 0 .678-.25 1.214-.786 1.571s-1.179.536-1.929.536a4.7 4.7 0 0 1-1.571-.286 3.886 3.886 0 0 1-1.286-.786l.285-.464c.358.322.751.572 1.179.75.465.179.929.25 1.429.25.607 0 1.107-.143 1.5-.393s.607-.607.607-1.107a1.18 1.18 0 0 0-.285-.786c-.179-.214-.429-.357-.715-.5-.285-.107-.643-.25-1.143-.393-.536-.178-.964-.321-1.286-.464a2.065 2.065 0 0 1-.821-.643 1.75 1.75 0 0 1-.357-1.072c0-.643.25-1.143.714-1.464.464-.322 1.107-.5 1.822-.5.821 0 1.571.214 2.25.607l-.286.5a3.911 3.911 0 0 0-1.964-.5zM111.14 35.815c.107.107.143.25.143.392a.538.538 0 0 1-.143.393.458.458 0 0 1-.357.143.458.458 0 0 1-.357-.143.534.534 0 0 1-.143-.393c0-.142.035-.285.143-.392a.458.458 0 0 1 .357-.143c.107-.036.25.035.357.143zm-.679 2.607h.608v7.823h-.608v-7.823zM117.601 39.027c-.607 0-1.178.143-1.679.428-.5.286-.857.68-1.143 1.18-.285.5-.428 1.07-.428 1.714 0 .643.143 1.214.428 1.75.286.5.643.893 1.143 1.179a3.265 3.265 0 0 0 1.679.428c.536 0 1-.107 1.429-.285a2.806 2.806 0 0 0 1.107-.822l.393.393a3.713 3.713 0 0 1-1.286.929 4.21 4.21 0 0 1-1.643.321 4.01 4.01 0 0 1-1.964-.5 3.403 3.403 0 0 1-1.358-1.393 4.3 4.3 0 0 1-.5-2.036 4.3 4.3 0 0 1 .5-2.036 3.403 3.403 0 0 1 1.358-1.393 4.01 4.01 0 0 1 1.964-.5c.572 0 1.072.107 1.572.285.464.18.893.465 1.25.822l-.357.465c-.75-.608-1.536-.93-2.465-.93z" fill="#231F20"/><path fill-rule="evenodd" clip-rule="evenodd" d="M31.759 5.489c5.062-3.458 11.97-3.546 17.194.276a14.718 14.718 0 0 1 4.993 17.362c-4.876-.88-8.347-3.035-10.536-8.663C41.12 6.642 37.337 5.656 31.76 5.49zm17.34 26.88l-.607 1.215c-5.217 10.17 1.929 19.193 1.929 19.193-5.418 1.041-10.554-.48-14.716-3.549-10.217 6.006-22.894 4.175-29.175-4.553C-.156 35.383 2.934 21.8 13.433 14.33c5.71-4.062 12.435-5.478 18.457-4.426 5.399.942 8.364 6.78 5.879 11.64L35.745 25.5c-2.31-2.759-6.249-4.404-10.557-4.036-6.52.553-11.418 5.496-10.942 11.04.476 5.547 6.146 9.59 12.666 9.037 4.708-.397 8.57-3.086 10.173-6.635l.059.043 5.659-11.352a15.861 15.861 0 0 0 8.837 4.047L49.1 32.37z" fill="#000"/></svg>